<svg xmlns="http://www.w3.org/2000/svg" xmlns:xlink="http://www.w3.org/1999/xlink" viewBox="0,0,256,256" width="50px" height="50px" fill-rule="nonzero"><g fill="#fafbfa" fill-rule="nonzero" stroke="none" stroke-width="1" stroke-linecap="butt" stroke-linejoin="miter" stroke-miterlimit="10" stroke-dasharray="" stroke-dashoffset="0" font-family="none" font-weight="none" font-size="none" text-anchor="none" style="mix-blend-mode: normal"><g transform="scale(5.12,5.12)"><path d="M0.98828,9c-0.54687,0.00781 -0.98828,0.45313 -0.98828,1v28c0,0.55078 0.44922,1 1,1h48c0.55078,0 1,-0.44922 1,-1v-28c0,-0.36719 -0.20312,-0.70703 -0.52734,-0.88281c-0.32422,-0.17187 -0.71875,-0.15234 -1.02734,0.05078l-2.43359,1.625l-2.35156,-1.61719c-0.33203,-0.23047 -0.76953,-0.23437 -1.10937,-0.01562l-2.53516,1.63672l-2.36328,-1.62109c-0.33594,-0.23047 -0.77344,-0.23437 -1.11328,-0.01562l-2.52734,1.64063l-2.41797,-1.62891c-0.33594,-0.22656 -0.77344,-0.23047 -1.10937,-0.00781l-2.47266,1.63281l-2.37891,-1.625c-0.33203,-0.22656 -0.76953,-0.23047 -1.10937,-0.00781l-2.51953,1.63672l-2.46875,-1.63672c-0.33594,-0.22266 -0.77344,-0.21875 -1.10937,0.00781l-2.4375,1.62891l-2.53906,-1.64062c-0.33984,-0.21875 -0.77734,-0.21484 -1.10937,0.01563l-2.33984,1.60938l-2.33594,-1.60937c-0.33203,-0.23047 -0.76953,-0.23437 -1.10937,-0.01562l-2.54687,1.64453l-2.45312,-1.63672c-0.16797,-0.11328 -0.36328,-0.17187 -0.56641,-0.16797zM7.07813,11.20313l2.35156,1.62109c0.34375,0.23438 0.79688,0.23438 1.13672,0l2.35547,-1.62109l2.53516,1.63672c0.33594,0.21484 0.76953,0.21094 1.10156,-0.01172l2.42578,-1.625l2.46484,1.62891c0.33203,0.22266 0.76172,0.22266 1.09766,0.00781l2.51172,-1.63672l2.37891,1.625c0.33203,0.22656 0.77344,0.23047 1.11328,0.00781l2.48047,-1.63281l2.41016,1.625c0.33203,0.22656 0.76563,0.23047 1.10547,0.01172l2.51953,-1.63672l2.36719,1.62109c0.33203,0.23047 0.76953,0.23438 1.10938,0.01563l2.53516,-1.63672l2.35547,1.62109c0.33594,0.23047 0.78125,0.23438 1.12109,0.00781l1.44531,-0.96094v25.12891h-46v-25.12891l1.44531,0.96094c0.33203,0.22266 0.76172,0.22266 1.09766,0.00781zM38,17v1.1875c-1.15625,0.41797 -2,1.51953 -2,2.8125v1.57422c0,0.3125 0.14844,0.60938 0.40234,0.80078l3.59766,2.69922v0.92578c0,0.56641 -0.43359,1 -1,1c-0.56641,0 -1,-0.43359 -1,-1v-1h-2v1c0,1.29297 0.84375,2.39453 2,2.8125v1.1875h2v-1.1875c1.15625,-0.41797 2,-1.51953 2,-2.8125v-1.42578c0,-0.31641 -0.14844,-0.61328 -0.40234,-0.80469l-3.59766,-2.69531v-1.07422c0,-0.56641 0.43359,-1 1,-1c0.56641,0 1,0.43359 1,1v1h2v-1c0,-1.29297 -0.84375,-2.39453 -2,-2.8125v-1.1875zM10.99609,18.02344c-0.91406,0 -1.64062,0.40234 -2.18359,1.21094c-0.53906,0.80859 -0.8125,1.98438 -0.8125,3.53125v2.5c0,1.55469 0.27344,2.73047 0.81641,3.53125c0.54297,0.80078 1.27734,1.20313 2.19531,1.20313c0.91016,0 1.63281,-0.40234 2.17578,-1.20312c0.53906,-0.80078 0.8125,-1.97656 0.8125,-3.53125v-2.5c0,-1.54687 -0.27344,-2.72266 -0.81641,-3.53125c-0.54297,-0.80859 -1.27344,-1.21094 -2.1875,-1.21094zM20.99609,18.02344c-0.91406,0 -1.64062,0.40234 -2.18359,1.21094c-0.53906,0.80859 -0.8125,1.98438 -0.8125,3.53125v2.5c0,1.55469 0.27344,2.73047 0.81641,3.53125c0.54297,0.80078 1.27734,1.20313 2.19531,1.20313c0.91016,0 1.63281,-0.40234 2.17578,-1.20312c0.53906,-0.80078 0.8125,-1.97656 0.8125,-3.53125v-2.5c0,-1.54687 -0.27344,-2.72266 -0.81641,-3.53125c-0.54297,-0.80859 -1.27344,-1.21094 -2.1875,-1.21094zM28.99609,18.02344c-0.91406,0 -1.64062,0.40234 -2.18359,1.21094c-0.53906,0.80859 -0.8125,1.98438 -0.8125,3.53125v2.5c0,1.55469 0.27344,2.73047 0.81641,3.53125c0.54297,0.80078 1.27734,1.20313 2.19531,1.20313c0.91016,0 1.63281,-0.40234 2.17578,-1.20312c0.53906,-0.80078 0.8125,-1.97656 0.8125,-3.53125v-2.5c0,-1.54687 -0.27344,-2.72266 -0.81641,-3.53125c-0.54297,-0.80859 -1.27344,-1.21094 -2.1875,-1.21094zM10.97656,19.90234h0.03906c0.3125,-0.02734 0.55078,0.17578 0.72656,0.60938c0.17188,0.42969 0.25781,1.11328 0.25781,2.05078v2.89063c0,0.95313 -0.08203,1.64453 -0.25,2.07813c-0.17187,0.42969 -0.41016,0.63281 -0.71875,0.59766h-0.04297c-0.3125,0.03516 -0.55469,-0.16797 -0.72656,-0.60156c-0.17578,-0.4375 -0.26172,-1.12891 -0.26172,-2.07422v-2.89062c0,-0.9375 0.08203,-1.62109 0.25,-2.05078c0.17188,-0.43359 0.41406,-0.63672 0.72656,-0.60937zM20.97266,19.90234h0.04297c0.3125,-0.02734 0.55078,0.17578 0.72656,0.60938c0.17188,0.42969 0.25781,1.11328 0.25781,2.05078v2.89063c0,0.95313 -0.08203,1.64453 -0.25,2.07813c-0.17187,0.42969 -0.41016,0.63281 -0.71875,0.59766h-0.04297c-0.31641,0.03516 -0.55469,-0.16797 -0.73047,-0.60156c-0.17187,-0.4375 -0.26172,-1.12891 -0.26172,-2.07422v-2.89062c0,-0.9375 0.08594,-1.62109 0.25391,-2.05078c0.16797,-0.43359 0.41016,-0.63672 0.72266,-0.60937zM28.97266,19.90234h0.04297c0.3125,-0.02734 0.55078,0.17578 0.72656,0.60938c0.17188,0.42969 0.25781,1.11328 0.25781,2.05078v2.89063c0,0.95313 -0.08203,1.64453 -0.25,2.07813c-0.17187,0.42969 -0.41016,0.63281 -0.71875,0.59766h-0.04297c-0.31641,0.03516 -0.55469,-0.16797 -0.73047,-0.60156c-0.17187,-0.4375 -0.26172,-1.12891 -0.26172,-2.07422v-2.89062c0,-0.9375 0.08594,-1.62109 0.25391,-2.05078c0.16797,-0.43359 0.41016,-0.63672 0.72266,-0.60937zM15,27.98438v2.01563h2v-2.01562z"></path></g></g></svg>