<svg xmlns="http://www.w3.org/2000/svg" xmlns:xlink="http://www.w3.org/1999/xlink" viewBox="0,0,256,256" width="48px" height="48px" fill-rule="nonzero"><g fill="#fafbfa" fill-rule="nonzero" stroke="none" stroke-width="1" stroke-linecap="butt" stroke-linejoin="miter" stroke-miterlimit="10" stroke-dasharray="" stroke-dashoffset="0" font-family="none" font-weight="none" font-size="none" text-anchor="none" style="mix-blend-mode: normal"><g transform="scale(5.33333,5.33333)"><path d="M24,9c-3.57801,0 -6.5,2.922 -6.5,6.5c0,3.57801 2.92199,6.5 6.5,6.5c3.57801,0 6.5,-2.92199 6.5,-6.5c0,-3.578 -2.92199,-6.5 -6.5,-6.5zM24,11c2.49713,0 4.5,2.00287 4.5,4.5c0,2.49713 -2.00287,4.5 -4.5,4.5c-2.49713,0 -4.5,-2.00287 -4.5,-4.5c0,-2.49713 2.00287,-4.5 4.5,-4.5zM10,14c-1.58333,0 -2.89811,0.62976 -3.74805,1.58594c-0.84994,0.95618 -1.25195,2.19184 -1.25195,3.41406c0,1.22222 0.40201,2.45788 1.25195,3.41406c0.84994,0.95618 2.16471,1.58594 3.74805,1.58594c1.58333,0 2.89811,-0.62976 3.74805,-1.58594c0.84994,-0.95618 1.25195,-2.19184 1.25195,-3.41406c0,-1.22222 -0.40201,-2.45788 -1.25195,-3.41406c-0.84994,-0.95618 -2.16471,-1.58594 -3.74805,-1.58594zM38,14c-1.58333,0 -2.89811,0.62976 -3.74805,1.58594c-0.84994,0.95618 -1.25195,2.19184 -1.25195,3.41406c0,1.22222 0.40201,2.45788 1.25195,3.41406c0.84994,0.95618 2.16471,1.58594 3.74805,1.58594c1.58333,0 2.89811,-0.62976 3.74805,-1.58594c0.84994,-0.95618 1.25195,-2.19184 1.25195,-3.41406c0,-1.22222 -0.40201,-2.45788 -1.25195,-3.41406c-0.84994,-0.95618 -2.16471,-1.58594 -3.74805,-1.58594zM10,16c1.08333,0 1.76856,0.37024 2.25195,0.91406c0.48339,0.54382 0.74805,1.30816 0.74805,2.08594c0,0.77778 -0.26465,1.54212 -0.74805,2.08594c-0.48339,0.54382 -1.16862,0.91406 -2.25195,0.91406c-1.08333,0 -1.76856,-0.37024 -2.25195,-0.91406c-0.48339,-0.54382 -0.74805,-1.30816 -0.74805,-2.08594c0,-0.77778 0.26465,-1.54212 0.74805,-2.08594c0.48339,-0.54382 1.16862,-0.91406 2.25195,-0.91406zM38,16c1.08333,0 1.76856,0.37024 2.25195,0.91406c0.48339,0.54382 0.74805,1.30816 0.74805,2.08594c0,0.77778 -0.26465,1.54212 -0.74805,2.08594c-0.48339,0.54382 -1.16862,0.91406 -2.25195,0.91406c-1.08333,0 -1.76856,-0.37024 -2.25195,-0.91406c-0.48339,-0.54382 -0.74805,-1.30816 -0.74805,-2.08594c0,-0.77778 0.26465,-1.54212 0.74805,-2.08594c0.48339,-0.54382 1.16862,-0.91406 2.25195,-0.91406zM24,25c-3.01602,0 -5.84181,1.08876 -8.04102,2.94336c-1.68576,-1.23094 -3.75868,-1.94336 -5.95898,-1.94336c-4.31465,0 -8.15642,2.72819 -9.50195,6.77148l-0.33398,1c-0.68666,2.06429 0.92499,4.22852 3.10352,4.22852h4.73242c0.36064,0.0051 0.69608,-0.18438 0.87789,-0.49587c0.18181,-0.3115 0.18181,-0.69676 0,-1.00825c-0.18181,-0.3115 -0.51725,-0.50097 -0.87789,-0.49587h-4.73242c-0.90147,0 -1.47442,-0.78599 -1.20508,-1.5957l0.33203,-1.00195c1.07046,-3.21671 4.13212,-5.40234 7.60547,-5.40234c1.65714,0 3.21699,0.50451 4.51563,1.375c-1.03945,1.21591 -1.85561,2.64262 -2.37305,4.22852l-0.42578,1.30078c-0.81093,2.48607 1.08221,5.0957 3.69727,5.0957h17.17188c2.61505,0 4.50759,-2.60961 3.69531,-5.0957l-0.42383,-1.30078c-0.51712,-1.58597 -1.3336,-3.01259 -2.37305,-4.22852c1.29864,-0.87049 2.85849,-1.375 4.51563,-1.375c3.47335,0 6.535,2.18563 7.60547,5.40234l0.33203,1.00195c0.26934,0.80971 -0.30361,1.5957 -1.20508,1.5957h-4.73242c-0.36064,-0.0051 -0.69608,0.18438 -0.87789,0.49587c-0.18181,0.3115 -0.18181,0.69676 0,1.00825c0.18181,0.3115 0.51725,0.50097 0.87789,0.49587h4.73242c2.17853,0 3.79018,-2.16422 3.10352,-4.22852l-0.33398,-1c-1.34554,-4.04329 -5.18731,-6.77148 -9.50195,-6.77148c-2.20031,0 -4.27322,0.71242 -5.95898,1.94336c-2.19931,-1.85459 -5.025,-2.94336 -8.04102,-2.94336zM24,27c4.53613,0 8.54908,2.91252 9.95508,7.22461l0.42578,1.30078c0.40773,1.24791 -0.48197,2.47461 -1.79492,2.47461h-17.17188c-1.31295,0 -2.20199,-1.22668 -1.79492,-2.47461l0.42383,-1.30078c1.40696,-4.31225 5.4209,-7.22461 9.95703,-7.22461z"></path></g></g></svg>